<?xml version="1.0" encoding="UTF-8" standalone="no"?>
<!-- Created with Inkscape (http://www.inkscape.org/) -->

<svg
   width="153.37822mm"
   height="153.37823mm"
   viewBox="0 0 153.37822 153.37823"
   version="1.1"
   id="svg2672"
   xml:space="preserve"
   inkscape:version="1.2.2 (b0a8486541, 2022-12-01)"
   sodipodi:docname="logo.svg"
   xmlns:inkscape="http://www.inkscape.org/namespaces/inkscape"
   xmlns:sodipodi="http://sodipodi.sourceforge.net/DTD/sodipodi-0.dtd"
   xmlns="http://www.w3.org/2000/svg"
   xmlns:svg="http://www.w3.org/2000/svg"><sodipodi:namedview
     id="namedview2674"
     pagecolor="#ffffff"
     bordercolor="#666666"
     borderopacity="1.0"
     inkscape:showpageshadow="2"
     inkscape:pageopacity="0.0"
     inkscape:pagecheckerboard="0"
     inkscape:deskcolor="#d1d1d1"
     inkscape:document-units="mm"
     showgrid="false"
     inkscape:zoom="0.75277076"
     inkscape:cx="621.039"
     inkscape:cy="299.55999"
     inkscape:window-width="1920"
     inkscape:window-height="1015"
     inkscape:window-x="0"
     inkscape:window-y="0"
     inkscape:window-maximized="1"
     inkscape:current-layer="g4510" /><defs
     id="defs2669"><inkscape:path-effect
       effect="bspline"
       id="path-effect3170"
       is_visible="true"
       lpeversion="1"
       weight="33.333333"
       steps="2"
       helper_size="0"
       apply_no_weight="true"
       apply_with_weight="true"
       only_selected="false" /><inkscape:path-effect
       effect="bspline"
       id="path-effect3170-6"
       is_visible="true"
       lpeversion="1"
       weight="33.333333"
       steps="2"
       helper_size="0"
       apply_no_weight="true"
       apply_with_weight="true"
       only_selected="false" /><inkscape:path-effect
       effect="bspline"
       id="path-effect3170-5"
       is_visible="true"
       lpeversion="1"
       weight="33.333333"
       steps="2"
       helper_size="0"
       apply_no_weight="true"
       apply_with_weight="true"
       only_selected="false" /><inkscape:path-effect
       effect="bspline"
       id="path-effect3170-62"
       is_visible="true"
       lpeversion="1"
       weight="33.333333"
       steps="2"
       helper_size="0"
       apply_no_weight="true"
       apply_with_weight="true"
       only_selected="false" /></defs><g
     inkscape:label="Layer 1"
     inkscape:groupmode="layer"
     id="layer1"
     transform="translate(-26.2419,-64.819434)"><g
       id="g3641"
       transform="translate(-177.91909,45.295634)"><g
         id="g4510"><path
           id="path3168-3-0"
           style="display:inline;fill:#000000;stroke:#808080;stroke-width:1.85208;stroke-linecap:square;stroke-linejoin:miter;paint-order:normal"
           d="m 262.07353,47.840369 c -17.70913,0.13203 -36.73008,5.865405 -47.84376,20.467895 -10.31427,11.46677 -10.26633,28.441213 -7.70384,42.744216 5.47175,27.7241 27.47647,51.44221 54.97002,58.36826 27.70037,7.65927 59.31289,-2.31209 77.34711,-24.76166 9.85639,-11.75889 15.94499,-26.64587 16.93579,-42.01991 -2.47976,19.22319 -18.42381,34.82441 -37.07685,38.67322 -18.90713,5.00897 -40.99194,2.76638 -56.24401,-10.2918 -9.38013,-9.61223 -12.33093,-24.49873 -9.4696,-37.367212 2.33286,-10.748224 11.62895,-20.669374 23.23722,-20.081654 9.97364,0.29101 17.62384,9.81942 18.48301,19.380531 1.39537,9.495955 -2.44705,20.916935 -10.92972,25.908085 9.01941,0.91264 16.08949,-3.74904 20.46807,-9.75406 13.98514,-18.955826 4.18435,-50.194136 -18.64284,-56.956911 -7.51633,-2.76229 -15.49484,-4.47039 -23.5306,-4.309 z"
           sodipodi:nodetypes="ccccccccccccccc" /><path
           id="path3168-3"
           style="display:inline;fill:#ffffff;stroke:#808080;stroke-width:1.85208;stroke-linecap:square;stroke-linejoin:miter;paint-order:normal"
           d="m 299.11988,144.56556 c 17.70913,-0.13203 36.73008,-5.8654 47.84376,-20.46789 10.31427,-11.46677 10.26633,-28.441213 7.70384,-42.744214 -5.47175,-27.7241 -27.47647,-51.442209 -54.97002,-58.368268 -27.70037,-7.65927 -59.31289,2.312089 -77.34711,24.761669 -9.85639,11.758889 -15.94499,26.645865 -16.93579,42.019905 2.47976,-19.22319 18.42381,-34.824406 37.07685,-38.673215 18.90713,-5.00897 40.99194,-2.76638 56.24401,10.291799 9.38013,9.61223 12.33093,24.49873 9.4696,37.36721 -2.33286,10.748224 -11.62895,20.669374 -23.23722,20.081654 -9.97364,-0.29101 -17.62384,-9.81942 -18.48301,-19.380531 -1.39537,-9.49596 2.44705,-20.91694 10.92972,-25.90809 -9.01941,-0.912635 -16.08949,3.749047 -20.46807,9.754067 -13.98514,18.955824 -4.18435,50.194134 18.64284,56.956904 7.51633,2.76229 15.49484,4.47039 23.5306,4.309 z"
           sodipodi:nodetypes="ccccccccccccccc" /></g></g></g></svg>
