<?xml version="1.0" encoding="UTF-8" standalone="no"?>
<!-- Created with Inkscape (http://www.inkscape.org/) -->

<svg
   width="153.37822mm"
   height="153.37823mm"
   viewBox="0 0 153.37822 153.37823"
   version="1.1"
   id="svg2672"
   xml:space="preserve"
   inkscape:version="1.2.2 (b0a8486541, 2022-12-01)"
   sodipodi:docname="logo.svg"
   xmlns:inkscape="http://www.inkscape.org/namespaces/inkscape"
   xmlns:sodipodi="http://sodipodi.sourceforge.net/DTD/sodipodi-0.dtd"
   xmlns="http://www.w3.org/2000/svg"
   xmlns:svg="http://www.w3.org/2000/svg"><sodipodi:namedview
     id="namedview2674"
     pagecolor="#ffffff"
     bordercolor="#666666"
     borderopacity="1.0"
     inkscape:showpageshadow="2"
     inkscape:pageopacity="0.0"
     inkscape:pagecheckerboard="0"
     inkscape:deskcolor="#d1d1d1"
     inkscape:document-units="mm"
     showgrid="false"
     inkscape:zoom="1.0645786"
     inkscape:cx="365.87246"
     inkscape:cy="278.51395"
     inkscape:window-width="1920"
     inkscape:window-height="1015"
     inkscape:window-x="0"
     inkscape:window-y="0"
     inkscape:window-maximized="1"
     inkscape:current-layer="layer1" /><defs
     id="defs2669"><inkscape:path-effect
       effect="bspline"
       id="path-effect3170"
       is_visible="true"
       lpeversion="1"
       weight="33.333333"
       steps="2"
       helper_size="0"
       apply_no_weight="true"
       apply_with_weight="true"
       only_selected="false" /><inkscape:path-effect
       effect="bspline"
       id="path-effect3170-6"
       is_visible="true"
       lpeversion="1"
       weight="33.333333"
       steps="2"
       helper_size="0"
       apply_no_weight="true"
       apply_with_weight="true"
       only_selected="false" /><inkscape:path-effect
       effect="bspline"
       id="path-effect3170-5"
       is_visible="true"
       lpeversion="1"
       weight="33.333333"
       steps="2"
       helper_size="0"
       apply_no_weight="true"
       apply_with_weight="true"
       only_selected="false" /><inkscape:path-effect
       effect="bspline"
       id="path-effect3170-62"
       is_visible="true"
       lpeversion="1"
       weight="33.333333"
       steps="2"
       helper_size="0"
       apply_no_weight="true"
       apply_with_weight="true"
       only_selected="false" /></defs><g
     inkscape:label="Layer 1"
     inkscape:groupmode="layer"
     id="layer1"
     transform="translate(-26.2419,-64.819434)"><g
       id="g3641"
       transform="translate(-177.91909,45.295634)"><g
         id="g4510"><path
           id="path3168"
           style="fill:#000000;stroke:#000000;stroke-width:1.85208;stroke-linecap:butt;stroke-linejoin:bevel;paint-order:normal"
           d="m 262.05875,47.916383 c -3.89834,0.03698 -7.66592,0.425739 -11.47321,1.005623 -4.35118,0.662725 -8.72609,1.572376 -12.84004,2.937288 -4.11394,1.364913 -7.96643,3.184847 -11.71815,5.712313 -3.75171,2.527468 -7.40212,5.762285 -10.53372,9.473324 -3.13161,3.711038 -5.74405,7.897774 -7.41919,11.747086 -1.14103,2.622 -1.84218,5.089683 -2.30218,7.487399 a 75.829285,75.829285 0 0 0 -0.68523,9.867098 75.829285,75.829285 0 0 0 75.82896,75.829476 75.829285,75.829285 0 0 0 75.6605,-71.31089 c -0.95247,4.42014 -1.8798,8.5969 -2.9869,12.00857 -1.20844,3.72401 -2.58608,6.15807 -4.39198,8.62686 -1.8059,2.46879 -5.86131,7.34046 -8.4615,9.73843 -2.60018,2.39797 -6.69204,5.16847 -10.69547,7.03988 -4.00343,1.87141 -8.58027,3.29174 -13.1377,4.2664 -4.55741,0.97467 -9.09542,1.50388 -13.90974,1.57045 -4.81432,0.0666 -9.87623,-0.32749 -14.77326,-1.09864 -4.89704,-0.77116 -9.63562,-1.92338 -14.04049,-3.73569 -4.40485,-1.81231 -8.48633,-4.28721 -11.41842,-6.80992 -2.93208,-2.5227 -4.71399,-5.09315 -6.36499,-8.76019 -1.651,-3.66703 -3.17052,-8.43038 -3.91604,-13.35939 -0.74552,-4.92899 -0.71713,-10.02342 0.015,-14.315922 0.73215,-4.292501 2.16778,-7.782312 4.17752,-11.011214 2.00974,-3.228903 4.59342,-6.196444 7.51169,-8.093046 2.91825,-1.896601 6.17097,-2.722518 9.33379,-2.977596 3.16283,-0.255079 6.23533,0.06073 8.94519,1.158069 2.70987,1.097342 5.05666,2.976147 6.96237,5.260661 1.90571,2.284513 3.37056,4.974242 4.24677,7.858951 0.87621,2.88471 1.16412,5.96447 1.1746,8.720915 0.0105,2.756446 -0.25658,5.189842 -0.92914,7.474482 -0.67256,2.28464 -1.76095,4.44077 -3.06028,6.39289 -1.29932,1.95211 -2.81431,3.71012 -4.31498,4.9568 -1.50067,1.24669 -2.98694,1.98182 -4.47311,2.71715 2.16703,0.43483 4.33411,0.86992 6.88278,0.57309 2.54868,-0.29683 5.47936,-1.3253 8.20415,-2.99672 2.7248,-1.67142 5.24358,-3.98563 7.30499,-6.86986 2.06141,-2.88422 3.69661,-6.40614 4.73304,-9.963217 1.03644,-3.557081 1.49017,-7.183491 1.49655,-10.637593 0.006,-3.454103 -0.43454,-6.73597 -1.36736,-10.131165 -0.93283,-3.395194 -2.35753,-6.903247 -4.12895,-10.0552 -1.7714,-3.151954 -3.88971,-5.947662 -6.27455,-8.212936 -2.38485,-2.265274 -5.03635,-3.999742 -8.65942,-5.723164 -3.62307,-1.723424 -8.21714,-3.435244 -12.82402,-4.574915 -4.6069,-1.139671 -9.19652,-1.703374 -13.69839,-1.779736 -0.56273,-0.0095 -1.12258,-0.01148 -1.67948,-0.0062 z" /><path
           id="path3168-9"
           style="fill:#ffffff;stroke:#000000;stroke-width:1.5875;stroke-linecap:butt;stroke-linejoin:bevel;stroke-dasharray:none;paint-order:normal"
           d="m 280.91599,20.31755 a 75.829285,75.829285 0 0 0 -75.65998,71.310376 c 0.95247,-4.420139 1.87929,-8.596901 2.98638,-12.008569 1.20844,-3.72401 2.5866,-6.157554 4.3925,-8.626347 1.8059,-2.468792 5.86131,-7.340971 8.4615,-9.73894 2.60019,-2.397971 6.69204,-5.168475 10.69547,-7.039881 4.00344,-1.871406 8.57976,-3.291737 13.13718,-4.266406 4.55742,-0.974669 9.09542,-1.503355 13.90975,-1.56993 4.81431,-0.06658 9.87674,0.32697 14.77377,1.098124 4.89704,0.771155 9.63511,1.923899 14.03997,3.736206 4.40486,1.812309 8.48634,4.286701 11.41843,6.809404 2.93207,2.522703 4.7145,5.093154 6.3655,8.760189 1.651,3.667033 3.17052,8.430392 3.91604,13.359391 0.74552,4.929 0.71713,10.023415 -0.015,14.315922 -0.73215,4.292511 -2.16831,7.782831 -4.17804,11.011731 -2.00973,3.22891 -4.5929,6.19593 -7.51117,8.09253 -2.91825,1.89661 -6.17097,2.72252 -9.33379,2.9776 -3.16283,0.25507 -6.23584,-0.0602 -8.94571,-1.15756 -2.70987,-1.09734 -5.05666,-2.97667 -6.96237,-5.26117 -1.9057,-2.28452 -3.37004,-4.97425 -4.24625,-7.85896 -0.87621,-2.8847 -1.16412,-5.963949 -1.1746,-8.720394 -0.0105,-2.756446 0.25606,-5.189843 0.92862,-7.474479 0.67256,-2.284638 1.76147,-4.440778 3.0608,-6.392892 1.29933,-1.952114 2.81431,-3.710633 4.31498,-4.95732 1.50067,-1.246686 2.98694,-1.981817 4.47311,-2.717147 -2.16703,-0.434832 -4.33462,-0.869922 -6.8833,-0.573091 -2.54868,0.29683 -5.47884,1.325294 -8.20363,2.996716 -2.7248,1.671423 -5.24409,3.985646 -7.3055,6.869865 -2.06142,2.884219 -3.69662,6.406132 -4.73304,9.963216 -1.03644,3.557084 -1.48966,7.183496 -1.49604,10.637596 -0.006,3.4541 0.43454,6.73597 1.36736,10.13116 0.93282,3.3952 2.35753,6.90326 4.12895,10.0552 1.77141,3.15196 3.8892,5.94767 6.27403,8.21294 2.38485,2.26528 5.03687,4.00026 8.65994,5.72368 3.62308,1.72343 8.21714,3.43524 12.82402,4.57491 4.6069,1.13967 9.19652,1.70338 13.69839,1.77974 4.50188,0.0764 8.80099,-0.3367 13.15217,-0.99942 4.35119,-0.66273 8.72661,-1.57238 12.84056,-2.93729 4.11394,-1.36491 7.96643,-3.18536 11.71815,-5.71283 3.75171,-2.52747 7.40213,-5.76177 10.53372,-9.47281 3.13161,-3.71104 5.74405,-7.89829 7.41919,-11.7476 1.14161,-2.62333 1.84272,-5.09216 2.3027,-7.49102 a 75.829285,75.829285 0 0 0 0.68471,-9.863476 75.829285,75.829285 0 0 0 -75.82948,-75.828964 z" /></g></g></g></svg>
