<?xml version="1.0" encoding="UTF-8" standalone="no"?>
<!-- Created with Inkscape (http://www.inkscape.org/) -->

<svg
   width="153.37822mm"
   height="153.37823mm"
   viewBox="0 0 153.37822 153.37823"
   version="1.1"
   id="svg2672"
   xml:space="preserve"
   inkscape:version="1.2.2 (b0a8486541, 2022-12-01)"
   sodipodi:docname="logo.svg"
   xmlns:inkscape="http://www.inkscape.org/namespaces/inkscape"
   xmlns:sodipodi="http://sodipodi.sourceforge.net/DTD/sodipodi-0.dtd"
   xmlns="http://www.w3.org/2000/svg"
   xmlns:svg="http://www.w3.org/2000/svg"><sodipodi:namedview
     id="namedview2674"
     pagecolor="#ffffff"
     bordercolor="#666666"
     borderopacity="1.0"
     inkscape:showpageshadow="2"
     inkscape:pageopacity="0.0"
     inkscape:pagecheckerboard="0"
     inkscape:deskcolor="#d1d1d1"
     inkscape:document-units="mm"
     showgrid="false"
     inkscape:zoom="1.0645786"
     inkscape:cx="394.05262"
     inkscape:cy="332.05626"
     inkscape:window-width="1920"
     inkscape:window-height="1015"
     inkscape:window-x="0"
     inkscape:window-y="0"
     inkscape:window-maximized="1"
     inkscape:current-layer="g4510" /><defs
     id="defs2669"><inkscape:path-effect
       effect="bspline"
       id="path-effect3170"
       is_visible="true"
       lpeversion="1"
       weight="33.333333"
       steps="2"
       helper_size="0"
       apply_no_weight="true"
       apply_with_weight="true"
       only_selected="false" /><inkscape:path-effect
       effect="bspline"
       id="path-effect3170-6"
       is_visible="true"
       lpeversion="1"
       weight="33.333333"
       steps="2"
       helper_size="0"
       apply_no_weight="true"
       apply_with_weight="true"
       only_selected="false" /><inkscape:path-effect
       effect="bspline"
       id="path-effect3170-5"
       is_visible="true"
       lpeversion="1"
       weight="33.333333"
       steps="2"
       helper_size="0"
       apply_no_weight="true"
       apply_with_weight="true"
       only_selected="false" /><inkscape:path-effect
       effect="bspline"
       id="path-effect3170-62"
       is_visible="true"
       lpeversion="1"
       weight="33.333333"
       steps="2"
       helper_size="0"
       apply_no_weight="true"
       apply_with_weight="true"
       only_selected="false" /></defs><g
     inkscape:label="Layer 1"
     inkscape:groupmode="layer"
     id="layer1"
     transform="translate(-26.2419,-64.819434)"><g
       id="g3641"
       transform="translate(-177.91909,45.295634)"><g
         id="g4510"><path
           id="path3168"
           style="fill:#000000;stroke:#ffffff;stroke-width:1.85208;stroke-linecap:square;stroke-linejoin:miter;paint-order:normal"
           d="m 262.05875,47.916383 c -3.89834,0.03698 -7.66592,0.425739 -11.47321,1.005623 -4.35118,0.662725 -8.72609,1.572376 -12.84004,2.937288 -4.11394,1.364913 -7.96643,3.184847 -11.71815,5.712313 -3.75171,2.527468 -7.40212,5.762285 -10.53372,9.473324 -3.13161,3.711038 -5.74405,7.897774 -7.41919,11.747086 -1.14103,2.622 -2.23363,5.403261 -2.69363,7.800977 -0.4429,3.270616 -0.28035,6.25308 -0.29378,9.55352 -1.1e-4,41.879306 33.94965,75.829296 75.82896,75.829476 40.11134,-0.018 73.27041,-31.27082 75.6605,-71.31089 -0.95247,4.42014 -1.8798,8.5969 -2.9869,12.00857 -1.20844,3.72401 -2.85724,5.96157 -4.66314,8.43036 -1.8059,2.46879 -5.48162,7.05805 -8.08181,9.45602 -2.60018,2.39797 -6.8805,4.98321 -10.88393,6.85462 -4.00343,1.87141 -8.56463,3.37148 -13.12206,4.34614 -4.55741,0.97467 -9.03113,2.08831 -13.84545,2.15488 -4.81432,0.0666 -9.87623,-0.32749 -14.77326,-1.09864 -4.89704,-0.77116 -9.73626,-2.42417 -14.14113,-4.23648 -4.40485,-1.81231 -7.81058,-4.26717 -10.74267,-6.78988 -2.93208,-2.5227 -4.94146,-4.60774 -6.59246,-8.27478 -1.651,-3.66703 -3.51816,-8.43504 -4.26368,-13.36405 -0.74552,-4.92899 -0.71713,-10.02342 0.015,-14.315922 0.73215,-4.292501 2.16778,-7.782312 4.17752,-11.011214 2.00974,-3.228903 4.68328,-5.982838 7.60155,-7.87944 2.91825,-1.896601 6.08111,-2.936124 9.24393,-3.191202 3.16283,-0.255079 6.24451,0.197573 8.95437,1.294912 2.70987,1.097342 5.04748,2.839304 6.95319,5.123818 1.90571,2.284513 3.37056,4.974242 4.24677,7.858951 0.87621,2.88471 1.16412,5.96447 1.1746,8.720915 0.0105,2.756446 -0.25658,5.189842 -0.92914,7.474482 -0.67256,2.28464 -1.76095,4.44077 -3.06028,6.39289 -1.29932,1.95211 -2.81431,3.71012 -4.31498,4.9568 -1.50067,1.24669 -2.98694,1.98182 -4.47311,2.71715 2.16703,0.43483 4.33411,0.86992 6.88278,0.57309 2.54868,-0.29683 5.47936,-1.3253 8.20415,-2.99672 2.7248,-1.67142 5.24358,-3.98563 7.30499,-6.86986 2.06141,-2.88422 3.69661,-6.40614 4.73304,-9.963217 1.03644,-3.557081 1.49017,-7.183491 1.49655,-10.637593 0.006,-3.454103 -0.43454,-6.73597 -1.36736,-10.131165 -0.93283,-3.395194 -2.35753,-6.903247 -4.12895,-10.0552 -1.7714,-3.151954 -3.88971,-5.947662 -6.27455,-8.212936 -2.38485,-2.265274 -5.03635,-3.999742 -8.65942,-5.723164 -3.62307,-1.723424 -8.21714,-3.435244 -12.82402,-4.574915 -4.6069,-1.139671 -9.19652,-1.703374 -13.69839,-1.779736 -0.56273,-0.0095 -1.12258,-0.01148 -1.67948,-0.0062 z"
           sodipodi:nodetypes="ssssssccccssssssssssscsssssssssscsssscssssscss" /><path
           id="path3168-0"
           style="fill:#ffffff;stroke:#000000;stroke-width:1.85208;stroke-linecap:square;stroke-linejoin:miter;paint-order:normal"
           d="m 299.6219,144.50944 c 3.89834,-0.037 7.66592,-0.42574 11.47321,-1.00562 4.35118,-0.66272 8.72609,-1.57238 12.84004,-2.93729 4.11394,-1.36491 7.96643,-3.18484 11.71815,-5.71231 3.75171,-2.52747 7.40212,-5.76229 10.53372,-9.47332 3.13161,-3.71104 5.74405,-7.89778 7.41919,-11.74709 1.14103,-2.622 2.23363,-5.40326 2.69363,-7.80098 0.4429,-3.27061 0.28035,-6.253075 0.29378,-9.553515 1.1e-4,-41.879306 -33.94965,-75.829295 -75.82896,-75.829475 -40.11134,0.018 -73.27041,31.270819 -75.6605,71.310889 0.95247,-4.42014 1.8798,-8.5969 2.9869,-12.00857 1.20844,-3.72401 2.85724,-5.96157 4.66314,-8.43036 1.8059,-2.46879 5.48162,-7.05805 8.08181,-9.45602 2.60018,-2.39797 6.8805,-4.98321 10.88393,-6.85462 4.00343,-1.87141 8.56463,-3.37148 13.12206,-4.34614 4.55741,-0.97467 9.03113,-2.088309 13.84545,-2.154879 4.81432,-0.0666 9.87623,0.32749 14.77326,1.098639 4.89704,0.77116 9.73626,2.42417 14.14113,4.23648 4.40485,1.81231 7.81058,4.26717 10.74267,6.78988 2.93208,2.5227 4.94146,4.60774 6.59246,8.27478 1.651,3.66703 3.51816,8.43504 4.26368,13.36405 0.74552,4.92899 0.71713,10.02342 -0.015,14.315922 -0.73215,4.292499 -2.16778,7.782309 -4.17752,11.011209 -2.00974,3.22891 -4.68328,5.98284 -7.60155,7.87944 -2.91825,1.8966 -6.08111,2.93613 -9.24393,3.1912 -3.16283,0.25508 -6.24451,-0.19757 -8.95437,-1.29491 -2.70987,-1.09734 -5.04748,-2.8393 -6.95319,-5.12381 -1.90571,-2.28452 -3.37056,-4.97425 -4.24677,-7.85895 -0.87621,-2.88471 -1.16412,-5.964474 -1.1746,-8.720919 -0.0105,-2.756446 0.25658,-5.189842 0.92914,-7.474482 0.67256,-2.28464 1.76095,-4.44077 3.06028,-6.39289 1.29932,-1.95211 2.81431,-3.71012 4.31498,-4.9568 1.50067,-1.24669 2.98694,-1.98182 4.47311,-2.71715 -2.16703,-0.43483 -4.33411,-0.86992 -6.88278,-0.57309 -2.54868,0.29683 -5.47936,1.3253 -8.20415,2.99672 -2.7248,1.67142 -5.24358,3.98563 -7.30499,6.86986 -2.06141,2.88422 -3.69661,6.40614 -4.73304,9.963217 -1.03644,3.557081 -1.49017,7.183494 -1.49655,10.637594 -0.006,3.4541 0.43454,6.73597 1.36736,10.13116 0.93283,3.3952 2.35753,6.90325 4.12895,10.0552 1.7714,3.15196 3.88971,5.94766 6.27455,8.21294 2.38485,2.26527 5.03635,3.99974 8.65942,5.72316 3.62307,1.72343 8.21714,3.43525 12.82402,4.57492 4.6069,1.13967 9.19652,1.70337 13.69839,1.77973 0.56273,0.01 1.12258,0.0115 1.67948,0.006 z"
           sodipodi:nodetypes="ssssssccccssssssssssscsssssssssscsssscssssscss" /></g></g></g></svg>
